<svg width="244" height="106" viewBox="0 0 244 106" fill="none" xmlns="http://www.w3.org/2000/svg">
<path fill-rule="evenodd" clip-rule="evenodd" d="M212.576 11.9907H152.053L149.442 18.6452H209.292L212.576 11.9907Z" fill="white"/>
<path fill-rule="evenodd" clip-rule="evenodd" d="M191.859 27.2959H146.047L143.436 33.9504H198.686L191.859 27.2959Z" fill="white"/>
<path fill-rule="evenodd" clip-rule="evenodd" d="M201.984 42.6016H140.042L137.431 49.256H200.843L201.984 42.6016Z" fill="white"/>
<path d="M218.196 12.1572L224.235 24.3937L237.739 26.3559L227.967 35.8807L230.274 49.3299L218.196 42.98L206.118 49.3299L208.424 35.8807L198.653 26.3559L212.157 24.3937L218.196 12.1572Z" fill="#FFEA00"/>
<path d="M17.5097 41.8354L17.4869 41.7899C19.5112 41.7899 21.7629 40.1068 21.7629 38.0597C21.7629 34.7163 17.2595 34.2614 14.7348 33.3743C10.2541 31.8504 6.3192 28.1885 6.3192 23.1846C6.3192 16.998 11.3231 12.0169 17.5097 12.0169C23.1504 12.0169 27.8131 16.202 28.5864 21.638L21.2625 23.1846C21.2625 21.1831 19.5794 19.4772 17.5551 19.4772C15.5081 19.4772 13.825 21.1831 13.825 23.2074C13.825 26.5054 18.01 27.3924 20.5575 28.143C25.1747 29.4849 29.2687 33.0104 29.2687 38.1052C29.2687 44.2918 23.719 49.2957 17.5324 49.2957C11.8689 49.2957 6.72861 45.1334 5.90979 39.6746L13.2109 38.1052C13.2109 40.1523 15.4399 41.8354 17.5097 41.8354ZM33.4074 12.3353H40.754V27.0058H53.0134V12.3353H60.36V49H53.0134V34.3068H40.754V49H33.4074V12.3353ZM83.1039 12.0397C88.1987 12.0397 92.5885 13.882 96.2504 17.5212C99.8896 21.1831 101.732 25.5728 101.732 30.6904C101.732 35.8307 99.8896 40.2205 96.2504 43.8369C92.6112 47.4534 88.2215 49.2502 83.1039 49.2502C77.9636 49.2502 73.5738 47.4306 69.9574 43.8369C66.3182 40.1978 64.4986 35.8307 64.4986 30.6904C64.4986 25.5956 66.3182 21.2058 69.9574 17.5212C73.5966 13.882 77.9863 12.0397 83.1039 12.0397ZM83.0812 19.4772C79.9879 19.4772 77.3495 20.5917 75.1887 22.7752C73.0052 24.9815 71.9134 27.6199 71.9134 30.6677C71.9134 33.7382 73.0052 36.3766 75.1887 38.5601C77.3722 40.7209 79.9879 41.8126 83.0812 41.8126C86.129 41.8126 88.7674 40.7209 90.9509 38.5601C93.1571 36.3766 94.2489 33.761 94.2489 30.6677C94.2489 27.5971 93.1571 24.9587 90.9509 22.7525C88.7674 20.569 86.1517 19.4772 83.0812 19.4772ZM101.822 12.3353H109.76L116.538 29.6896L123.339 12.3353L130.117 29.6896L136.872 12.3353H144.832L130.117 49.8188L123.248 31.5775L116.538 49.8188L101.822 12.3353ZM17.5097 87.8354L17.4869 87.7899C19.5112 87.7899 21.7629 86.1068 21.7629 84.0597C21.7629 80.7163 17.2595 80.2614 14.7348 79.3743C10.2541 77.8504 6.3192 74.1885 6.3192 69.1846C6.3192 62.998 11.3231 58.0169 17.5097 58.0169C23.1504 58.0169 27.8131 62.202 28.5864 67.638L21.2625 69.1846C21.2625 67.1831 19.5794 65.4772 17.5551 65.4772C15.5081 65.4772 13.825 67.1831 13.825 69.2074C13.825 72.5054 18.01 73.3924 20.5575 74.143C25.1747 75.4849 29.2687 79.0104 29.2687 84.1052C29.2687 90.2918 23.719 95.2957 17.5324 95.2957C11.8689 95.2957 6.72861 91.1334 5.90979 85.6746L13.2109 84.1052C13.2109 86.1523 15.4399 87.8354 17.5097 87.8354ZM32.0427 58.3353H57.4714V65.6364H48.4644V95H41.0724V65.6364H32.0427V58.3353ZM54.5364 95L71.2539 57.5848L87.994 95H80.0106L77.5314 89.4275H64.9763L62.4971 95H54.5364ZM67.8876 82.9225H74.6201L71.2766 75.1665L67.8876 82.9225ZM92.1327 95V58.3353H104.096C108.168 58.3353 111.466 59.882 113.695 62.0655C115.924 64.3172 117.22 66.3415 117.22 70.3901V71.3454C117.22 73.8246 116.447 76.1445 114.9 78.328C113.627 80.1476 112.603 80.8982 110.511 81.717L119.04 95H110.033L99.502 78.7829V95H92.1327ZM104.802 75.7806C107.485 75.7806 109.646 73.4152 109.646 70.6403C109.646 69.2983 109.146 68.1156 108.191 67.0921C107.213 66.1823 105.416 65.6364 103.642 65.6364H99.502V75.7579H102.345V75.7806H104.802ZM121.814 58.3353H147.242V65.6364H138.236V95H130.843V65.6364H121.814V58.3353ZM151.358 58.2444H173.466V65.5909H158.728V72.983H169.782V80.3296H158.728V87.7217H173.466V95.0455H151.358V58.2444ZM177.582 95V58.3353H189.546C193.617 58.3353 196.915 59.882 199.144 62.0655C201.373 64.3172 202.67 66.3415 202.67 70.3901V71.3454C202.67 73.8246 201.896 76.1445 200.35 78.328C199.076 80.1476 198.053 80.8982 195.96 81.717L204.489 95H195.482L184.952 78.7829V95H177.582ZM190.251 75.7806C192.935 75.7806 195.096 73.4152 195.096 70.6403C195.096 69.2983 194.595 68.1156 193.64 67.0921C192.662 66.1823 190.865 65.6364 189.091 65.6364H184.952V75.7579H187.795V75.7806H190.251ZM218.863 87.8354L218.84 87.7899C220.865 87.7899 223.116 86.1068 223.116 84.0597C223.116 80.7163 218.613 80.2614 216.088 79.3743C211.608 77.8504 207.673 74.1885 207.673 69.1846C207.673 62.998 212.677 58.0169 218.863 58.0169C224.504 58.0169 229.167 62.202 229.94 67.638L222.616 69.1846C222.616 67.1831 220.933 65.4772 218.909 65.4772C216.862 65.4772 215.179 67.1831 215.179 69.2074C215.179 72.5054 219.364 73.3924 221.911 74.143C226.528 75.4849 230.622 79.0104 230.622 84.1052C230.622 90.2918 225.073 95.2957 218.886 95.2957C213.222 95.2957 208.082 91.1334 207.263 85.6746L214.564 84.1052C214.564 86.1523 216.793 87.8354 218.863 87.8354Z" fill="white"/>
</svg>
