<svg width="100" height="100" viewBox="0 0 100 100" fill="none" xmlns="http://www.w3.org/2000/svg">
<g clip-path="url(#clip0_106_1580)">
<rect width="100" height="100" rx="25" fill="#240F57"/>
<path fill-rule="evenodd" clip-rule="evenodd" d="M26.4745 31.9751L24.0683 38.1073H69.0023V31.9751H26.4745Z" fill="white"/>
<path fill-rule="evenodd" clip-rule="evenodd" d="M20.9401 46.0786L18.5339 52.2109H69.0022V46.0786H20.9401Z" fill="white"/>
<path fill-rule="evenodd" clip-rule="evenodd" d="M15.4062 60.1826L13 66.3149H63.4835V60.1826H15.4062Z" fill="white"/>
<path d="M76.0759 31.022L81.0593 41.1187L92.2028 42.7388L97.2155 43.4673L93.5886 47.0034L85.5241 54.8628L87.4284 65.9614L88.2849 70.9536L83.8005 68.5962L73.8337 63.356L63.8669 68.5962L59.3835 70.9536L60.2399 65.9614L62.1432 54.8628L54.0798 47.0034L50.4528 43.4673L55.4655 42.7388L66.6081 41.1187L71.5925 31.022L73.8337 26.48L76.0759 31.022Z" fill="#FFEA00" stroke="#240F57" stroke-width="5"/>
</g>
<defs>
<clipPath id="clip0_106_1580">
<rect width="100" height="100" rx="25" fill="white"/>
</clipPath>
</defs>
</svg>
